PathFileType	4	(X/Y/Z)	/Users/itak/Documents/Research/Walk-IL/dataset/trc/00210_00009.trc
DataRate	CameraRate	NumFrames	NumMarkers	Units	OrigDataRate	OrigDataStartFrame	OrigNumFrames
100.000000	100.000000	4	53	mm	100.000000	0	637
Frame#	Time	RPSI			LPSI			L3			STRN			T10			C7			CLAV			RBAK			LBAK			LSHO			LUPA			LAEL			LAOL			LWTS			LWPS			LFRA			LIFD			LHPS			LHTS			RSHO			RUPA			RAEL			RAOL			RWTS			RWPS			RFRA			RIFD			RHTS			RHPS			RBHD			LFHD			RFHD			LBHD			LHIP			RHIP			RASI			LASI			LKNE			LTHI			LANK			LTIP			LTOE			LMT5			LHEE			RKNE			RTHI			RANK			RTIP			RTOE			RMT1			RMT5			RHEE			LMT1			
		X1	Y1	Z1	X2	Y2	Z2	X3	Y3	Z3	X4	Y4	Z4	X5	Y5	Z5	X6	Y6	Z6	X7	Y7	Z7	X8	Y8	Z8	X9	Y9	Z9	X10	Y10	Z10	X11	Y11	Z11	X12	Y12	Z12	X13	Y13	Z13	X14	Y14	Z14	X15	Y15	Z15	X16	Y16	Z16	X17	Y17	Z17	X18	Y18	Z18	X19	Y19	Z19	X20	Y20	Z20	X21	Y21	Z21	X22	Y22	Z22	X23	Y23	Z23	X24	Y24	Z24	X25	Y25	Z25	X26	Y26	Z26	X27	Y27	Z27	X28	Y28	Z28	X29	Y29	Z29	X30	Y30	Z30	X31	Y31	Z31	X32	Y32	Z32	X33	Y33	Z33	X34	Y34	Z34	X35	Y35	Z35	X36	Y36	Z36	X37	Y37	Z37	X38	Y38	Z38	X39	Y39	Z39	X40	Y40	Z40	X41	Y41	Z41	X42	Y42	Z42	X43	Y43	Z43	X44	Y44	Z44	X45	Y45	Z45	X46	Y46	Z46	X47	Y47	Z47	X48	Y48	Z48	X49	Y49	Z49	X50	Y50	Z50	X51	Y51	Z51	X52	Y52	Z52	X53	Y53	Z53	

1	0	-1366.259033203125	1057.814575195312	-232.9603576660156	-1356.355712890625	1061.552978515625	-352.9955749511719	-1361.590454101562	1132.195434570312	-310.83740234375	-1126.654418945312	1323.364501953125	-300.2872924804688	-1377.998413085938	1259.193237304688	-305.6622009277344	-1321.035400390625	1521.963623046875	-306.5933837890625	-1153.8583984375	1440.095336914062	-300.6936950683594	-1397.004760742188	1382.480102539062	-234.8578338623047	-1336.7373046875	1484.888916015625	-418.2982482910156	-1245.130004882812	1488.977172851562	-471.9273071289062	-1267.522216796875	1368.82666015625	-549.2993774414062	-1247.108642578125	1159.213500976562	-577.1717529296875	-1318.654296875	1138.94189453125	-529.9514770507812	-1140.558715820312	934.0889892578125	-520.1636962890625	-1165.913208007812	915.4004516601562	-598.14990234375	-1218.842407226562	1054.093872070312	-590.212646484375	-1101.16259765625	738.2725219726562	-538.29150390625	-1139.05078125	829.4783325195312	-595.2741088867188	-1092.424072265625	840.3079223632812	-541.5352172851562	-1265.166259765625	1482.26123046875	-135.4768371582031	-1285.984741210938	1418.119018554688	-68.19884490966797	-1296.672729492188	1136.143920898438	-27.17675399780273	-1330.46923828125	1129.536254882812	-115.9729690551758	-1157.146118164062	922.4768676757812	-75.23023223876953	-1206.862670898438	908.0745239257812	-7.624188423156738	-1267.856567382812	1068.096069335938	-14.9670991897583	-1137.37353515625	727.3217163085938	-76.700927734375	-1116.212890625	801.251220703125	-62.07014465332031	-1164.593505859375	801.2494506835938	-8.246587753295898	-1300.9716796875	1671.439208984375	-279.79638671875	-1086.707153320312	1738.5556640625	-320.4022216796875	-1114.645141601562	1739.533935546875	-224.0640106201172	-1222.032958984375	1681.376953125	-395.5139465332031	-1247.347900390625	994.3101806640625	-485.5677185058594	-1275.915649414062	1014.766784667969	-119.7556762695312	-1176.777954101562	1055.780151367188	-150.5068817138672	-1149.985595703125	1034.8662109375	-430.9008483886719	-1221.251342773438	507.6445617675781	-430.0244140625	-1218.822631835938	651.53076171875	-466.0438537597656	-1303.263793945312	39.77277374267578	-413.3821105957031	-1270.970581054688	285.8157043457031	-434.5770874023438	-1092.4814453125	45.10789489746094	-346.6284484863281	-1174.740234375	39.19327926635742	-424.1463317871094	-1368.005859375	49.28207397460938	-363.9841613769531	-1249.466186523438	519.6195068359375	-156.3811187744141	-1223.275634765625	789.1463623046875	-109.4317245483398	-1326.302612304688	41.37397766113281	-189.4456634521484	-1245.988891601562	404.7658996582031	-174.9536285400391	-1110.199951171875	47.37778472900391	-199.4870147705078	-1160.847045898438	43.4986457824707	-249.7809600830078	-1221.776733398438	41.66423416137695	-146.6735687255859	-1379.05322265625	39.62295532226562	-257.8756713867188	nan	nan	nan	
2	0.01	-1366.324584960938	1057.825927734375	-232.9472045898438	-1356.39892578125	1061.557250976562	-352.9869689941406	-1361.63037109375	1132.225463867188	-310.8384704589844	-1126.684204101562	1323.355712890625	-300.2914428710938	-1378.043823242188	1259.226684570312	-305.6938781738281	-1321.031616210938	1521.986572265625	-306.6377868652344	-1153.861206054688	1440.084350585938	-300.7215270996094	-1397.01513671875	1382.53125	-234.8878173828125	-1336.67626953125	1484.903564453125	-418.3243408203125	-1245.106323242188	1488.98046875	-471.9539489746094	-1267.50537109375	1368.825073242188	-549.3334350585938	-1247.099365234375	1159.213012695312	-577.1815795898438	-1318.655883789062	1138.950805664062	-529.9796752929688	-1140.603881835938	934.0634765625	-520.12158203125	-1165.919921875	915.3866577148438	-598.1300048828125	-1218.837280273438	1054.089233398438	-590.2078247070312	-1101.245727539062	738.2784423828125	-538.2796020507812	-1139.041870117188	829.464599609375	-595.2266235351562	-1092.43115234375	840.2950439453125	-541.5	-1265.17138671875	1482.30322265625	-135.5226593017578	-1285.999389648438	1418.174560546875	-68.21736907958984	-1296.816772460938	1136.193481445312	-27.1903247833252	-1330.552124023438	1129.590576171875	-115.9609756469727	-1157.26708984375	922.5189819335938	-75.17771148681641	-1206.974731445312	908.1259765625	-7.568315505981445	-1267.95361328125	1068.150512695312	-14.95009517669678	-1137.546875	727.3243408203125	-76.56161499023438	-1116.200439453125	801.31689453125	-61.97119903564453	-1164.698608398438	801.2460327148438	-8.163492202758789	-1300.93310546875	1671.482421875	-279.8085021972656	-1086.608154296875	1738.526977539062	-320.4349670410156	-1114.525268554688	1739.4990234375	-224.1235504150391	-1222.0126953125	1681.370971679688	-395.539306640625	-1247.420654296875	994.3099365234375	-485.5632019042969	-1275.99755859375	1014.771606445312	-119.7518310546875	-1176.866455078125	1055.802856445312	-150.4891204833984	-1150.066650390625	1034.89306640625	-430.8850708007812	-1221.2861328125	507.6512145996094	-430.0257873535156	-1218.867309570312	651.5316162109375	-466.0419616699219	-1303.267456054688	39.7681770324707	-413.3837280273438	-1270.991943359375	285.8172302246094	-434.5752868652344	-1092.483642578125	45.10159301757812	-346.6224365234375	-1174.742065429688	39.1889762878418	-424.1463623046875	-1368.009643554688	49.30571746826172	-363.9952697753906	-1249.488159179688	519.6314697265625	-156.3622894287109	-1223.32080078125	789.140625	-109.4403305053711	-1326.29638671875	41.36869049072266	-189.4473571777344	-1245.997192382812	404.7598571777344	-174.9805145263672	-1110.20703125	47.38018417358398	-199.4852600097656	-1160.844604492188	43.49737167358398	-249.778076171875	-1221.772094726562	41.66172409057617	-146.6712951660156	-1379.057861328125	39.62208938598633	-257.8807373046875	nan	nan	nan	
3	0.02	-1366.404541015625	1057.840087890625	-232.9301910400391	-1356.45068359375	1061.5634765625	-352.9744567871094	-1361.681518554688	1132.262939453125	-310.8392639160156	-1126.72119140625	1323.345581054688	-300.2968444824219	-1378.10009765625	1259.2685546875	-305.7333679199219	-1321.025756835938	1522.014282226562	-306.6930541992188	-1153.864868164062	1440.074340820312	-300.7521667480469	-1397.028564453125	1382.594604492188	-234.9235382080078	-1336.60205078125	1484.922607421875	-418.3591918945312	-1245.077880859375	1488.984375	-471.9885559082031	-1267.482543945312	1368.822998046875	-549.3771362304688	-1247.086303710938	1159.212036132812	-577.1951904296875	-1318.656860351562	1138.962524414062	-530.0166625976562	-1140.634033203125	934.05224609375	-520.0817260742188	-1165.928100585938	915.369384765625	-598.1058959960938	-1218.829956054688	1054.083129882812	-590.2042846679688	-1101.36572265625	738.2863159179688	-538.27099609375	-1139.031616210938	829.4478759765625	-595.1701049804688	-1092.437744140625	840.2816772460938	-541.4603271484375	-1265.179565429688	1482.356323242188	-135.5813903808594	-1286.015380859375	1418.244384765625	-68.2388916015625	-1296.983276367188	1136.256591796875	-27.20170021057129	-1330.649169921875	1129.658447265625	-115.9414138793945	-1157.432006835938	922.5670776367188	-75.10948181152344	-1207.114868164062	908.18896484375	-7.498610496520996	-1268.074829101562	1068.219116210938	-14.92929267883301	-1137.757080078125	727.3264770507812	-76.38805389404297	-1116.229736328125	801.3689575195312	-61.85199356079102	-1164.841796875	801.250732421875	-8.053335189819336	-1300.8857421875	1671.534423828125	-279.8264770507812	-1086.485717773438	1738.486328125	-320.4776306152344	-1114.37548828125	1739.455444335938	-224.19775390625	-1221.989990234375	1681.363159179688	-395.5724792480469	-1247.509399414062	994.3097534179688	-485.5564880371094	-1276.096313476562	1014.778381347656	-119.7439346313477	-1176.978149414062	1055.830688476562	-150.4685668945312	-1150.160400390625	1034.911010742188	-430.8674621582031	-1221.333251953125	507.6600036621094	-430.0274353027344	-1218.923461914062	651.5338745117188	-466.0391845703125	-1303.270874023438	39.76388931274414	-413.38525390625	-1271.018920898438	285.8199157714844	-434.5731201171875	-1092.486206054688	45.09668731689453	-346.6181945800781	-1174.74365234375	39.18440246582031	-424.146240234375	-1368.013305664062	49.32555389404297	-364.004638671875	-1249.517944335938	519.6463012695312	-156.3396148681641	-1223.37744140625	789.1375122070312	-109.4543075561523	-1326.292358398438	41.36463165283203	-189.4473266601562	-1246.01953125	404.7591552734375	-174.9932708740234	-1110.214721679688	47.38277816772461	-199.482421875	-1160.842529296875	43.49650573730469	-249.7752532958984	-1221.767822265625	41.65940475463867	-146.6691284179688	-1379.062133789062	39.62005996704102	-257.8851318359375	-1162.15966796875	40.60623168945312	-307.4309387207031	
4	0.03	-1366.495239257812	1057.8564453125	-232.9100952148438	-1356.507568359375	1061.571899414062	-352.9574890136719	-1361.7421875	1132.306396484375	-310.8395080566406	-1126.763671875	1323.334838867188	-300.3033752441406	-1378.163940429688	1259.317138671875	-305.7785034179688	-1321.01806640625	1522.044921875	-306.7566223144531	-1153.869384765625	1440.0673828125	-300.7826538085938	-1397.044311523438	1382.667114257812	-234.9625701904297	-1336.52001953125	1484.945678710938	-418.4028015136719	-1245.046752929688	1488.988525390625	-472.0301208496094	-1267.453979492188	1368.820434570312	-549.4288940429688	-1247.069091796875	1159.210693359375	-577.2127075195312	-1318.656860351562	1138.976684570312	-530.0617065429688	-1140.64453125	934.0582275390625	-520.0484008789062	-1165.937377929688	915.3493041992188	-598.0792846679688	-1218.820556640625	1054.075561523438	-590.2032470703125	-1101.53076171875	738.2966918945312	-538.2713012695312	-1139.021484375	829.42919921875	-595.1085205078125	-1092.443359375	840.2695922851562	-541.4192504882812	-1265.191650390625	1482.41845703125	-135.6505279541016	-1286.030639648438	1418.325561523438	-68.26173400878906	-1297.158447265625	1136.33154296875	-27.20747756958008	-1330.752807617188	1129.737060546875	-115.9127197265625	-1157.638061523438	922.6173095703125	-75.02775573730469	-1207.276977539062	908.2600708007812	-7.418014526367188	-1268.214477539062	1068.299560546875	-14.90530776977539	-1137.99169921875	727.327392578125	-76.18985748291016	-1116.309814453125	801.4017944335938	-61.72042083740234	-1165.021850585938	801.2678833007812	-7.918515205383301	-1300.832275390625	1671.592041015625	-279.8507995605469	-1086.3466796875	1738.433227539062	-320.5293579101562	-1114.202880859375	1739.404907226562	-224.2830810546875	-1221.966186523438	1681.353881835938	-395.6129150390625	-1247.609008789062	994.3096313476562	-485.5471496582031	-1276.20654296875	1014.786926269531	-119.7314300537109	-1177.106811523438	1055.861572265625	-150.447021484375	-1150.26318359375	1034.914916992188	-430.8484497070312	-1221.391235351562	507.670654296875	-430.0289306640625	-1218.989135742188	651.537353515625	-466.0357055664062	-1303.273681640625	39.76041030883789	-413.3865051269531	-1271.05078125	285.8238220214844	-434.5710754394531	-1092.489379882812	45.0937385559082	-346.6162414550781	-1174.744995117188	39.17997360229492	-424.1461181640625	-1368.015869140625	49.33503723144531	-364.0092163085938	-1249.555419921875	519.6631469726562	-156.3147888183594	-1223.444580078125	789.1376953125	-109.47314453125	-1326.290893554688	41.36219024658203	-189.4452819824219	-1246.0576171875	404.7646484375	-174.988037109375	-1110.221923828125	47.38516998291016	-199.478515625	-1160.84130859375	43.49625396728516	-249.7729187011719	-1221.764892578125	41.65779113769531	-146.6675262451172	-1379.065307617188	39.61609649658203	-257.8880310058594	-1162.159545898438	40.60347366333008	-307.4249267578125	
